# xmcd CD database file
#
# Track frame offsets:
#	150
#	35117
#	54017
#	82907
#	110782
#	143315
#	188355
#	220000
#	249570
#
# Disc length: 3892 seconds
#
# Revision: 2
# Processed by: cddbd v1.5.1PL0 Copyright (c) Steve Scherf et al.
# Submitted via: CDex 1.51
#
DISCID=6b0f3209
DTITLE=Brad Mehldau - Introducing Brad Mehldau
DYEAR=1995
DGENRE=Jazz
TTITLE0=It Might As Well Be Spring
TTITLE1=Countdown
TTITLE2=My Romance
TTITLE3=Angst
TTITLE4=Young Werther
TTITLE5=Prelude To A Kiss
TTITLE6=London Blues
TTITLE7=From This Moment On
TTITLE8=Say Goodbye
EXTD=YEAR: 1995
EXTT0=
EXTT1=
EXTT2=
EXTT3=
EXTT4=
EXTT5=
EXTT6=
EXTT7=
EXTT8=
PLAYORDER=
